<svg width="420" height="420" fill="none" xmlns="http://www.w3.org/2000/svg">
  <rect width="420" height="420" rx="60" fill="url(#paint0_linear)"/>
  <rect x="2.5" y="2.5" width="415" height="415" rx="57.5" stroke="#000" stroke-opacity=".02" stroke-width="5"/>
  <g clip-path="url(#clip0)" fill="#fff">
    <path d="M178.75 181.583c0 4.144 3.292 8.119 9.153 11.049 5.86 2.93 13.809 4.576 22.097 4.576 8.288 0 16.237-1.646 22.097-4.576 5.861-2.93 9.153-6.905 9.153-11.049 0-4.144-3.292-8.118-9.153-11.048-5.86-2.93-13.809-4.577-22.097-4.577-8.288 0-16.237 1.647-22.097 4.577-5.861 2.93-9.153 6.904-9.153 11.048zM178.75 124.292c0 4.144 3.292 8.118 9.153 11.048 5.86 2.93 13.809 4.577 22.097 4.577 8.288 0 16.237-1.647 22.097-4.577 5.861-2.93 9.153-6.904 9.153-11.048s-3.292-8.119-9.153-11.049c-5.86-2.93-13.809-4.576-22.097-4.576-8.288 0-16.237 1.646-22.097 4.576-5.861 2.93-9.153 6.905-9.153 11.049zM246.458 150.333c0 4.144 3.293 8.119 9.153 11.049 5.861 2.93 13.809 4.576 22.097 4.576 8.288 0 16.237-1.646 22.097-4.576 5.861-2.93 9.153-6.905 9.153-11.049 0-4.144-3.292-8.118-9.153-11.048-5.86-2.93-13.809-4.577-22.097-4.577-8.288 0-16.236 1.647-22.097 4.577-5.86 2.93-9.153 6.904-9.153 11.048zM116.25 150.333c0 4.144 3.292 8.119 9.153 11.049 5.86 2.93 13.809 4.576 22.097 4.576 8.288 0 16.237-1.646 22.097-4.576 5.861-2.93 9.153-6.905 9.153-11.049 0-4.144-3.292-8.118-9.153-11.048-5.86-2.93-13.809-4.577-22.097-4.577-8.288 0-16.237 1.647-22.097 4.577-5.861 2.93-9.153 6.904-9.153 11.048zM94.375 267.208l100.51 43.75a5.215 5.215 0 004.935-.415 5.204 5.204 0 002.357-4.355v-83.334a5.21 5.21 0 00-3.125-4.781l-106.76-46.479a5.204 5.204 0 00-6.668 2.302 5.206 5.206 0 00-.624 2.479v76.5a15.63 15.63 0 009.375 14.333zM217.813 222.792v83.333a5.209 5.209 0 007.291 4.771l100.521-43.75a15.615 15.615 0 006.823-5.764 15.62 15.62 0 002.552-8.559v-76.448a5.206 5.206 0 00-2.352-4.363 5.208 5.208 0 00-4.94-.418l-106.77 46.416a5.207 5.207 0 00-3.125 4.782z"/>
  </g>
  <defs>
    <linearGradient id="paint0_linear" x1="210" y1="0" x2="210" y2="420" gradientUnits="userSpaceOnUse">
      <stop stop-color="#CE1DA7"/>
      <stop offset="1" stop-color="#27A6C2"/>
    </linearGradient>
    <clipPath id="clip0">
      <path fill="#fff" transform="translate(85 85)" d="M0 0h250v250H0z"/>
    </clipPath>
  </defs>
</svg>
