<svg width="420" height="420" fill="none" xmlns="http://www.w3.org/2000/svg">
  <path fill-rule="evenodd" clip-rule="evenodd" d="M0 60C0 26.863 26.863 0 60 0h300c33.137 0 60 26.863 60 60v300c0 33.137-26.863 60-60 60H60c-33.137 0-60-26.863-60-60V60zm178.75 121.583c0 4.144 3.292 8.119 9.153 11.049 5.86 2.93 13.809 4.576 22.097 4.576 8.288 0 16.237-1.646 22.097-4.576 5.861-2.93 9.153-6.905 9.153-11.049 0-4.144-3.292-8.118-9.153-11.048-5.86-2.93-13.809-4.577-22.097-4.577-8.288 0-16.237 1.647-22.097 4.577-5.861 2.93-9.153 6.904-9.153 11.048zm9.153-46.243c-5.861-2.93-9.153-6.904-9.153-11.048s3.292-8.119 9.153-11.049c5.86-2.93 13.809-4.576 22.097-4.576 8.288 0 16.237 1.646 22.097 4.576 5.861 2.93 9.153 6.905 9.153 11.049 0 4.144-3.292 8.118-9.153 11.048-5.86 2.93-13.809 4.577-22.097 4.577-8.288 0-16.237-1.647-22.097-4.577zm58.555 14.993c0 4.144 3.293 8.119 9.153 11.049 5.861 2.93 13.809 4.576 22.097 4.576 8.288 0 16.237-1.646 22.097-4.576 5.861-2.93 9.153-6.905 9.153-11.049 0-4.144-3.292-8.118-9.153-11.048-5.86-2.93-13.809-4.577-22.097-4.577-8.288 0-16.236 1.647-22.097 4.577-5.86 2.93-9.153 6.904-9.153 11.048zm-121.055 11.049c-5.861-2.93-9.153-6.905-9.153-11.049 0-4.144 3.292-8.118 9.153-11.048 5.86-2.93 13.809-4.577 22.097-4.577 8.288 0 16.237 1.647 22.097 4.577 5.861 2.93 9.153 6.904 9.153 11.048s-3.292 8.119-9.153 11.049c-5.86 2.93-13.809 4.576-22.097 4.576-8.288 0-16.237-1.646-22.097-4.576zM94.375 267.208l100.51 43.75a5.215 5.215 0 004.935-.415 5.204 5.204 0 002.357-4.355v-83.334a5.21 5.21 0 00-3.125-4.781l-106.76-46.479a5.204 5.204 0 00-6.668 2.302 5.206 5.206 0 00-.624 2.479v76.5a15.63 15.63 0 009.375 14.333zm123.437 38.917v-83.333a5.207 5.207 0 013.126-4.782l106.77-46.416a5.208 5.208 0 017.292 4.781v76.448a15.62 15.62 0 01-2.552 8.559 15.615 15.615 0 01-6.823 5.764l-100.521 43.75a5.21 5.21 0 01-7.292-4.771z" fill="#000"/>
</svg>
